{
  "source": "C:\\Users\\Peter\\Desktop\\stuff\\MIUN\\quantitative_research\\video_compression\\videos\\BVI-HD\\BVI-HD_CDVL_videos\\ORIG\\MartialArts_1920x1080_60fps.mp4",
  "output": "C:\\Users\\Peter\\Desktop\\stuff\\MIUN\\quantitative_research\\video_compression\\compressed_videos\\BVI-HD\\vp9\\1.5\\MartialArts_1920x1080_60fps_vp9.webm",
  "codec": "vp9",
  "ok": "Input #0, mov,mp4,m4a,3gp,3g2,mj2, from 'C:\\Users\\Peter\\Desktop\\stuff\\MIUN\\quantitative_research\\video_compression\\videos\\BVI-HD\\BVI-HD_CDVL_videos\\ORIG\\MartialArts_1920x1080_60fps.mp4':\n  Metadata:\n    major_brand     : isom\n    minor_version   : 512\n    compatible_brands: isomiso2avc1mp41\n    encoder         : Lavf54.28.101\n  Duration: 00:00:05.00, start: 0.000000, bitrate: 120609 kb/s\n  Stream #0:0[0x1](und): Video: h264 (High 4:4:4 Predictive) (avc1 / 0x31637661), yuv420p(progressive), 1920x1080, 120605 kb/s, 60 fps, 60 tbr, 60 tbn (default)\n    Metadata:\n      handler_name    : VideoHandler\n      vendor_id       : [0][0][0][0]\n[out#0/webm @ 000001f259a38f80] Codec AVOption b:a (set bitrate (in bits/s)) has not been used for any stream. The most likely reason is either wrong type (e.g. a video option with no video streams) or that it is a private option of some decoder which was not actually used for any stream.\nStream mapping:\n  Stream #0:0 -> #0:0 (h264 (native) -> vp9 (libvpx-vp9))\nPress [q] to stop, [?] for help\n[libvpx-vp9 @ 000001f25a0105c0] v1.15.2-100-g40561f514\nOutput #0, webm, to 'C:\\Users\\Peter\\Desktop\\stuff\\MIUN\\quantitative_research\\video_compression\\compressed_videos\\BVI-HD\\vp9\\1.5\\MartialArts_1920x1080_60fps_vp9.webm':\n  Metadata:\n    major_brand     : isom\n    minor_version   : 512\n    compatible_brands: isomiso2avc1mp41\n    encoder         : Lavf62.3.100\n  Stream #0:0(und): Video: vp9, yuv420p(tv, progressive), 1920x1080, q=2-31, 1500 kb/s, 60 fps, 1k tbn (default)\n    Metadata:\n      encoder         : Lavc62.11.100 libvpx-vp9\n      handler_name    : VideoHandler\n      vendor_id       : [0][0][0][0]\n    Side data:\n      cpb: bitrate max/min/avg: 0/0/0 buffer size: 1500000 vbv_delay: N/A\nframe=    0 fps=0.0 q=0.0 size=       0KiB time=N/A bitrate=N/A speed=N/A elapsed=0:00:00.54    \nframe=    7 fps=6.0 q=43.0 size=       1KiB time=00:00:00.11 bitrate=  43.4kbits/s speed=0.0993x elapsed=0:00:01.17    \nframe=   14 fps=8.2 q=37.0 size=       1KiB time=00:00:00.23 bitrate=  21.7kbits/s speed=0.136x elapsed=0:00:01.71    \nframe=   19 fps=8.4 q=33.0 size=       1KiB time=00:00:00.31 bitrate=  16.0kbits/s speed=0.14x elapsed=0:00:02.26    \nframe=   23 fps=8.2 q=32.0 size=       1KiB time=00:00:00.38 bitrate=  13.2kbits/s speed=0.137x elapsed=0:00:02.79    \nframe=   27 fps=8.1 q=31.0 size=       1KiB time=00:00:00.45 bitrate=  11.3kbits/s speed=0.135x elapsed=0:00:03.32    \nframe=   33 fps=8.5 q=32.0 size=       1KiB time=00:00:00.55 bitrate=   9.2kbits/s speed=0.141x elapsed=0:00:03.89    \nframe=   39 fps=8.8 q=34.0 size=       1KiB time=00:00:00.65 bitrate=   7.8kbits/s speed=0.146x elapsed=0:00:04.45    \nframe=   46 fps=9.2 q=38.0 size=       1KiB time=00:00:00.76 bitrate=   6.6kbits/s speed=0.153x elapsed=0:00:05.01    \nframe=   52 fps=9.4 q=40.0 size=       1KiB time=00:00:00.86 bitrate=   5.8kbits/s speed=0.156x elapsed=0:00:05.54    \nframe=   58 fps=9.6 q=42.0 size=       1KiB time=00:00:00.96 bitrate=   5.2kbits/s speed=0.16x elapsed=0:00:06.05    \nframe=   64 fps=9.7 q=42.0 size=       1KiB time=00:00:01.06 bitrate=   4.7kbits/s speed=0.162x elapsed=0:00:06.59    \nframe=   69 fps=9.7 q=43.0 size=       1KiB time=00:00:01.15 bitrate=   4.4kbits/s speed=0.161x elapsed=0:00:07.12    \nframe=   74 fps=9.6 q=42.0 size=       1KiB time=00:00:01.23 bitrate=   4.1kbits/s speed=0.161x elapsed=0:00:07.67    \nframe=   80 fps=9.8 q=41.0 size=       1KiB time=00:00:01.33 bitrate=   3.8kbits/s speed=0.163x elapsed=0:00:08.19    \nframe=   85 fps=9.7 q=23.0 size=       1KiB time=00:00:01.40 bitrate=   3.6kbits/s speed=0.161x elapsed=0:00:08.72    \nframe=   90 fps=9.7 q=41.0 size=       1KiB time=00:00:01.50 bitrate=   3.4kbits/s speed=0.162x elapsed=0:00:09.25    \nframe=   96 fps=9.8 q=41.0 size=       1KiB time=00:00:01.60 bitrate=   3.2kbits/s speed=0.164x elapsed=0:00:09.78    \nframe=  104 fps= 10 q=39.0 size=       1KiB time=00:00:01.71 bitrate=   2.9kbits/s speed=0.166x elapsed=0:00:10.32    \nframe=  108 fps=9.9 q=40.0 size=       1KiB time=00:00:01.80 bitrate=   2.8kbits/s speed=0.166x elapsed=0:00:10.87    \nframe=  114 fps= 10 q=39.0 size=       1KiB time=00:00:01.90 bitrate=   2.7kbits/s speed=0.167x elapsed=0:00:11.40    \nframe=  118 fps=9.9 q=39.0 size=       1KiB time=00:00:01.96 bitrate=   2.6kbits/s speed=0.165x elapsed=0:00:11.93    \nframe=  124 fps= 10 q=37.0 size=       1KiB time=00:00:02.06 bitrate=   2.5kbits/s speed=0.166x elapsed=0:00:12.45    \nframe=  131 fps= 10 q=35.0 size=     256KiB time=00:00:02.18 bitrate= 960.5kbits/s speed=0.168x elapsed=0:00:13.02    \nframe=  138 fps= 10 q=36.0 size=     256KiB time=00:00:02.30 bitrate= 911.8kbits/s speed=0.17x elapsed=0:00:13.54    \nframe=  143 fps= 10 q=37.0 size=     256KiB time=00:00:02.38 bitrate= 879.9kbits/s speed=0.169x elapsed=0:00:14.08    \nframe=  149 fps= 10 q=39.0 size=     256KiB time=00:00:02.48 bitrate= 844.5kbits/s speed=0.17x elapsed=0:00:14.61    \nframe=  154 fps= 10 q=39.0 size=     256KiB time=00:00:02.56 bitrate= 817.1kbits/s speed=0.169x elapsed=0:00:15.15    \nframe=  161 fps= 10 q=41.0 size=     256KiB time=00:00:02.68 bitrate= 781.5kbits/s speed=0.171x elapsed=0:00:15.68    \nframe=  166 fps= 10 q=43.0 size=     256KiB time=00:00:02.76 bitrate= 758.0kbits/s speed=0.17x elapsed=0:00:16.23    \nframe=  173 fps= 10 q=47.0 size=     256KiB time=00:00:02.88 bitrate= 727.3kbits/s speed=0.172x elapsed=0:00:16.74    \nframe=  178 fps= 10 q=47.0 size=     256KiB time=00:00:02.96 bitrate= 706.9kbits/s speed=0.172x elapsed=0:00:17.26    \nframe=  185 fps= 10 q=49.0 size=     256KiB time=00:00:03.06 bitrate= 683.9kbits/s speed=0.172x elapsed=0:00:17.80    \nframe=  189 fps= 10 q=48.0 size=     256KiB time=00:00:03.15 bitrate= 665.8kbits/s speed=0.171x elapsed=0:00:18.37    \nframe=  196 fps= 10 q=45.0 size=     256KiB time=00:00:03.26 bitrate= 642.0kbits/s speed=0.173x elapsed=0:00:18.87    \nframe=  203 fps= 10 q=44.0 size=     256KiB time=00:00:03.38 bitrate= 619.8kbits/s speed=0.174x elapsed=0:00:19.39    \nframe=  210 fps= 11 q=46.0 size=     256KiB time=00:00:03.50 bitrate= 599.2kbits/s speed=0.176x elapsed=0:00:19.90    \nframe=  216 fps= 11 q=45.0 size=     256KiB time=00:00:03.60 bitrate= 582.5kbits/s speed=0.176x elapsed=0:00:20.45    \nframe=  223 fps= 11 q=44.0 size=     256KiB time=00:00:03.71 bitrate= 564.3kbits/s speed=0.177x elapsed=0:00:20.98    \nframe=  230 fps= 11 q=43.0 size=     256KiB time=00:00:03.83 bitrate= 547.1kbits/s speed=0.178x elapsed=0:00:21.55    \nframe=  237 fps= 11 q=42.0 size=     256KiB time=00:00:03.95 bitrate= 530.9kbits/s speed=0.179x elapsed=0:00:22.07    \nframe=  244 fps= 11 q=43.0 size=     256KiB time=00:00:04.06 bitrate= 515.7kbits/s speed=0.18x elapsed=0:00:22.60    \nframe=  249 fps= 11 q=42.0 size=     256KiB time=00:00:04.15 bitrate= 505.3kbits/s speed=0.179x elapsed=0:00:23.12    \nframe=  255 fps= 11 q=43.0 size=     256KiB time=00:00:04.25 bitrate= 493.4kbits/s speed=0.18x elapsed=0:00:23.64    \nframe=  262 fps= 11 q=44.0 size=     512KiB time=00:00:04.36 bitrate= 960.5kbits/s speed=0.181x elapsed=0:00:24.17    \nframe=  270 fps= 11 q=43.0 size=     512KiB time=00:00:04.50 bitrate= 932.1kbits/s speed=0.182x elapsed=0:00:24.71    \nframe=  276 fps= 11 q=43.0 size=     512KiB time=00:00:04.60 bitrate= 911.8kbits/s speed=0.182x elapsed=0:00:25.29    \nframe=  276 fps= 11 q=43.0 size=     512KiB time=00:00:04.60 bitrate= 911.8kbits/s speed=0.178x elapsed=0:00:25.84    \nframe=  276 fps= 10 q=43.0 size=     512KiB time=00:00:04.60 bitrate= 911.8kbits/s speed=0.174x elapsed=0:00:26.37    \nframe=  276 fps= 10 q=43.0 size=     512KiB time=00:00:04.60 bitrate= 911.8kbits/s speed=0.171x elapsed=0:00:26.88    \nframe=  276 fps= 10 q=43.0 size=     512KiB time=00:00:04.60 bitrate= 911.8kbits/s speed=0.168x elapsed=0:00:27.43    \n[out#0/webm @ 000001f259a38f80] video:844KiB audio:0KiB subtitle:0KiB other streams:0KiB global headers:0KiB muxing overhead: 0.327525%\nframe=  300 fps= 11 q=45.0 Lsize=     847KiB time=00:00:05.00 bitrate=1387.0kbits/s speed=0.181x elapsed=0:00:27.65    \n",
  "seconds": 28.080960988998413,
  "probe_out": {}
}